name pl14_filtered_grf.mot
datacolumns 37
datarows 12
range 0.002500 0.008000
endheader
time	1_ground_force_vx	1_ground_force_vy	1_ground_force_vz	1_ground_force_px	1_ground_force_py	1_ground_force_pz	1_ground_torque_x	1_ground_torque_y	1_ground_torque_z	2_ground_force_vx	2_ground_force_vy	2_ground_force_vz	2_ground_force_px	2_ground_force_py	2_ground_force_pz	2_ground_torque_x	2_ground_torque_y	2_ground_torque_z	3_ground_force_vx	3_ground_force_vy	3_ground_force_vz	3_ground_force_px	3_ground_force_py	3_ground_force_pz	3_ground_torque_x	3_ground_torque_y	3_ground_torque_z	4_ground_force_vx	4_ground_force_vy	4_ground_force_vz	4_ground_force_px	4_ground_force_py	4_ground_force_pz	4_ground_torque_x	4_ground_torque_y	4_ground_torque_z
            0.002500	            0.000000	           -0.000000	           -0.000000	            0.131163	            0.000000	            0.255524	           -0.000000	           -0.000000	            0.000000	            0.000000	           -0.000000	           -0.000000	           -0.134203	            0.000000	            0.291502	           -0.000000	            0.000000	           -0.000000	           13.488452	          287.379697	           87.979245	            0.375378	            1.309234	            1.913463	           -0.463492	           -9.874987	           -3.023157	          -20.759706	          317.905742	          134.076445	           -0.265882	            1.309157	            1.924889	           -1.030530	           15.781124	            6.655674
            0.003000	            0.000000	           -0.000000	           -0.000000	            0.131163	            0.000000	            0.255524	           -0.000000	           -0.000000	            0.000000	            0.000000	           -0.000000	           -0.000000	           -0.134203	            0.000000	            0.291502	           -0.000000	            0.000000	           -0.000000	           13.506767	          287.340120	           87.999589	            0.375378	            1.309234	            1.913463	           -0.464499	           -9.881658	           -3.026315	          -20.798538	          317.821110	          133.982381	           -0.265882	            1.309157	            1.924889	           -1.031955	           15.769235	            6.647764
            0.003500	            0.000000	           -0.000000	           -0.000000	            0.131163	            0.000000	            0.255524	           -0.000000	           -0.000000	            0.000000	            0.000000	           -0.000000	           -0.000000	           -0.134203	            0.000000	            0.291502	           -0.000000	            0.000000	           -0.000000	           13.520582	          287.307304	           88.018492	            0.375375	            1.309269	            1.913477	           -0.465325	           -9.887976	           -3.029247	          -20.835960	          317.737595	          133.892112	           -0.265878	            1.309155	            1.924887	           -1.033343	           15.757946	            6.640274
            0.004000	            0.000000	           -0.000000	           -0.000000	            0.131163	            0.000000	            0.255524	           -0.000000	           -0.000000	            0.000000	            0.000000	           -0.000000	           -0.000000	           -0.134203	            0.000000	            0.291502	           -0.000000	            0.000000	           -0.000000	           13.529941	          287.281675	           88.035953	            0.375372	            1.309304	            1.913490	           -0.465969	           -9.893932	           -3.031943	          -20.872038	          317.655487	          133.805836	           -0.265874	            1.309154	            1.924884	           -1.034700	           15.747288	            6.633221
            0.004500	            0.000000	           -0.000000	           -0.000000	            0.131163	            0.000000	            0.255524	           -0.000000	           -0.000000	            0.000000	            0.000000	           -0.000000	           -0.000000	           -0.134203	            0.000000	            0.291502	           -0.000000	            0.000000	           -0.000000	           13.534919	          287.263625	           88.051992	            0.375369	            1.309339	            1.913504	           -0.466433	           -9.899519	           -3.034399	          -20.906856	          317.575069	          133.723715	           -0.265870	            1.309152	            1.924881	           -1.036030	           15.737287	            6.626617
            0.005000	            0.000000	           -0.000000	           -0.000000	            0.131163	            0.000000	            0.255524	           -0.000000	           -0.000000	            0.000000	            0.000000	           -0.000000	           -0.000000	           -0.134203	            0.000000	            0.291502	           -0.000000	            0.000000	           -0.000000	           13.535619	          287.253503	           88.066654	            0.375366	            1.309374	            1.913517	           -0.466719	           -9.904735	           -3.036610	          -20.940507	          317.496609	          133.645878	           -0.265866	            1.309151	            1.924878	           -1.037339	           15.727961	            6.620471
            0.005500	            0.000000	           -0.000000	           -0.000000	            0.131163	            0.000000	            0.255524	           -0.000000	           -0.000000	            0.000000	            0.000000	           -0.000000	           -0.000000	           -0.134203	            0.000000	            0.291502	           -0.000000	            0.000000	           -0.000000	           13.531763	          287.251523	           88.080383	            0.375363	            1.309406	            1.913529	           -0.466818	           -9.909579	           -3.038590	          -20.973479	          317.419523	          133.574359	           -0.265862	            1.309150	            1.924875	           -1.038651	           15.719282	            6.614883
            0.006000	            0.000000	           -0.000000	           -0.000000	            0.131163	            0.000000	            0.255524	           -0.000000	           -0.000000	            0.000000	            0.000000	           -0.000000	           -0.000000	           -0.134203	            0.000000	            0.291502	           -0.000000	            0.000000	           -0.000000	           13.523920	          287.258045	           88.092892	            0.375360	            1.309438	            1.913542	           -0.466747	           -9.914061	           -3.040327	          -21.005505	          317.344894	          133.507276	           -0.265859	            1.309148	            1.924873	           -1.039953	           15.711299	            6.609757
            0.006500	            0.000000	           -0.000000	           -0.000000	            0.131163	            0.000000	            0.255524	           -0.000000	           -0.000000	            0.000000	            0.000000	           -0.000000	           -0.000000	           -0.134203	            0.000000	            0.291502	           -0.000000	            0.000000	           -0.000000	           13.512275	          287.273291	           88.104291	            0.375357	            1.309469	            1.913554	           -0.466515	           -9.918191	           -3.041825	          -21.036710	          317.272946	          133.444651	           -0.265855	            1.309147	            1.924870	           -1.041251	           15.704013	            6.605090
            0.007000	           -0.000000	            0.000000	           -0.000000	            0.131163	            0.000000	            0.255524	            0.000000	           -0.000000	           -0.000000	            0.000000	           -0.000000	           -0.000000	           -0.134203	            0.000000	            0.291502	           -0.000000	            0.000000	           -0.000000	           13.497033	          287.297432	           88.114711	            0.375354	            1.309501	            1.913566	           -0.466128	           -9.921984	           -3.043093	          -21.067221	          317.203884	          133.386478	           -0.265851	            1.309146	            1.924867	           -1.042550	           15.697419	            6.600876
            0.007500	           -0.000000	            0.000000	            0.000000	            0.131163	            0.000000	            0.255524	            0.000000	            0.000000	           -0.000000	            0.000000	           -0.000000	           -0.000000	           -0.134203	            0.000000	            0.291502	           -0.000000	            0.000000	            0.000000	           13.478420	          287.330596	           88.124303	            0.375351	            1.309533	            1.913578	           -0.465594	           -9.925458	           -3.044138	          -21.097170	          317.137892	          133.332713	           -0.265847	            1.309144	            1.924864	           -1.043856	           15.691507	            6.597102
            0.008000	           -0.000000	            0.000000	            0.000000	            0.131163	            0.000000	            0.255524	            0.000000	            0.000000	           -0.000000	            0.000000	            0.000000	           -0.000000	           -0.134203	            0.000000	            0.291502	           -0.000000	            0.000000	            0.000000	           13.455550	          287.372415	           88.134870	            0.375347	            1.309558	            1.913588	           -0.464885	           -9.928618	           -3.045030	          -21.127123	          317.073757	          133.286492	           -0.265844	            1.309143	            1.924861	           -1.045196	           15.686194	            6.593916
